<svg width="375" height="812" viewBox="0 0 375 812" fill="none" xmlns="http://www.w3.org/2000/svg">
  <!-- Barra de swipe to home (iOS) -->
  <rect x="137.5" y="790" width="100" height="5" rx="2.5" fill="#D1D1D6"/>
  <rect width="375" height="812" rx="40" fill="#FFFFFF"/>
  <!-- Abas inferiores -->
  <path d="M0,752 h375 v20 a40,40 0 0 1 -40,40 h-295 a40,40 0 0 1 -40,-40 v-20 z" fill="#F9F9F9"/>
  <!-- Aba Início (selecionada) -->
  <g transform="translate(90,782)">
    <circle cx="0" cy="0" r="22" fill="#E6F0FF"/>
    <path d="M-8 8V-8H-16V8H-24V-12.5L0-24L24-12.5V8H16V-8H8V8Z" fill="#007AFF"/>
  </g>
  <text x="90" y="810" text-anchor="middle" font-size="12" font-family="SF Pro Display, Arial" fill="#007AFF">Início</text>
  <!-- Aba Relatório -->
  <g transform="translate(285,782)">
    <circle cx="0" cy="0" r="22" fill="#F9F9F9"/>
    <rect x="-10" y="-6" width="4" height="12" rx="2" fill="#B0B0B0"/>
    <rect x="-2" y="-12" width="4" height="18" rx="2" fill="#B0B0B0"/>
    <rect x="6" y="0" width="4" height="6" rx="2" fill="#B0B0B0"/>
  </g>
  <text x="285" y="810" text-anchor="middle" font-size="12" font-family="SF Pro Display, Arial" fill="#B0B0B0">Relatório</text>
  <!-- Dynamic Island -->
  <rect x="112.5" y="24" width="150" height="36" rx="18" fill="#111" fill-opacity="0.92"/>
  <!-- Header -->
  <text x="32" y="90" font-size="28" font-family="-apple-system, SF Pro Display, Arial" fill="#1C1C1E" font-weight="bold">BabyNap</text>
  <!-- Config Icon (gearshape.fill, SVG) -->
  <g transform="translate(325,64) scale(1.1)">
    <path d="M16 8.5c0-.6.4-1.1 1-1.2l1.7-.3c.2-.6.4-1.2.7-1.7l-1.1-1.4a1.2 1.2 0 0 1 .1-1.6l1.4-1.4c.5-.5 1.3-.5 1.7 0l1.4 1.1c.5-.3 1.1-.5 1.7-.7l.3-1.7c.1-.6.6-1 1.2-1h2c.6 0 1.1.4 1.2 1l.3 1.7c.6.2 1.2.4 1.7.7l1.4-1.1c.5-.5 1.3-.5 1.7 0l1.4 1.4c.5.5.5 1.3.1 1.7l-1.1 1.4c.3.5.5 1.1.7 1.7l1.7.3c.6.1 1 0 1 1.2v2c0 .6-.4 1.1-1 1.2l-1.7.3c-.2.6-.4 1.2-.7 1.7l1.1 1.4c.5.5.5 1.3 0 1.7l-1.4 1.4c-.5.5-1.3.5-1.7 0l-1.4-1.1c-.5.3-1.1.5-1.7.7l-.3 1.7c-.1.6-.6 1-1.2 1h-2c-.6 0-1.1-.4-1.2-1l-.3-1.7c-.6-.2-1.2-.4-1.7-.7l-1.4 1.1c-.5.5-1.3.5-1.7 0l-1.4-1.4a1.2 1.2 0 0 1 0-1.7l1.1-1.4c-.3-.5-.5-1.1-.7-1.7l-1.7-.3c-.6-.1-1-0-1-1.2v-2z" fill="#636366"/>
    <circle cx="16" cy="16" r="5" fill="#FFF" stroke="#636366" stroke-width="2"/>
  </g>
  <!-- Status atual com ícone centralizado (acordado) -->
  <g>
    <!-- Ícone sol (sun.max.fill) -->
    <circle cx="187.5" cy="170" r="18" fill="#FFD700"/>
    <g stroke="#FFD700" stroke-width="2">
      <line x1="187.5" y1="146" x2="187.5" y2="134"/>
      <line x1="187.5" y1="194" x2="187.5" y2="206"/>
      <line x1="163.5" y1="170" x2="151.5" y2="170"/>
      <line x1="211.5" y1="170" x2="223.5" y2="170"/>
      <line x1="172.5" y1="155" x2="163.5" y2="146"/>
      <line x1="202.5" y1="155" x2="211.5" y2="146"/>
      <line x1="172.5" y1="185" x2="163.5" y2="194"/>
      <line x1="202.5" y1="185" x2="211.5" y2="194"/>
    </g>
    <text x="187.5" y="185" text-anchor="middle" font-size="18" font-family="SF Pro Display, Arial" fill="#3A3A3C" alignment-baseline="middle">Acordado há</text>
  </g>
  <!-- Timer grande centralizado -->
  <text x="50%" y="235" text-anchor="middle" font-size="44" font-family="SF Pro Display, Arial" fill="#1C1C1E">00:37:12</text>
  <!-- Tempo restante para janela de sono -->
  <text x="50%" y="270" text-anchor="middle" font-size="16" font-family="SF Pro Display, Arial" fill="#007AFF">Faltam 00:21 para o limite da janela de sono</text>
  <circle cx="187.5" cy="400" r="60" fill="#007AFF"/>
  <!-- Ícone lua crescente elegante, centralizado (inspirado no SF Symbols) -->
  <path d="M187.5 378a22 22 0 1 0 0 44c7.5 0 14.5-3.7 18.7-9.5a1 1 0 0 0-1.1-1.5c-8.7 2.2-17.1-3.7-17.1-12.5s8.4-14.7 17.1-12.5a1 1 0 0 0 1.1-1.5C202 381.7 195 378 187.5 378z" fill="#FFF"/>
  <!-- Aviso janela de sono -->
  <rect x="24" y="500" width="327" height="48" rx="16" fill="#FFF3CD"/>
  <text x="187.5" y="530" text-anchor="middle" font-size="16" font-family="SF Pro Display, Arial" fill="#856404">Atenção: Janela de sono quase no limite!</text>
</svg>
